<?xml version="1.0" encoding="UTF-8"?>
<svg viewBox="0 0 100 100" version="1.1" xmlns="http://www.w3.org/2000/svg" >
    <g class="senei" stroke="none" fill="#000000" fill-rule="evenodd">
        <g class="s" transform="translate(1.000000, 1.000000)">
            <path d="M45.5,98 L3.5,98 C1.166655,98 0,96.833345 0,94.5 L0,73.5 C0,71.166655 1.166655,70 3.5,70 L45.5,70 C52.2667005,70 58.0416428,67.9437706 62.825,63.83125 C67.6083572,59.7187294 70,54.7750289 70,49 C70,46.666655 71.166655,45.5 73.5,45.5 L94.5,45.5 C96.833345,45.5 98,46.666655 98,49 C98,62.533401 92.8813012,74.0832855 82.64375,83.65 C72.4061988,93.2167145 60.0250726,98 45.5,98 Z M52.5,0 L94.5,0 C96.833345,0 98,1.166655 98,3.5 L98,24.5 C98,26.833345 96.833345,28 94.5,28 L52.5,28 C45.7332995,28 39.9583572,30.0562294 35.175,34.16875 C30.3916428,38.2812706 28,43.2249711 28,49 C28,51.333345 26.833345,52.5 24.5,52.5 L3.5,52.5 C1.166655,52.5 0,51.333345 0,49 C0,35.466599 5.11869881,23.9167145 15.35625,14.35 C25.5938012,4.7832855 37.9749274,0 52.5,0 Z"></path>
        </g>
        <g class="e" transform="translate(1.000000, 1.000000)">
            <path d="M0,73.5 L0,35 L66.5,35.0875 C68.833345,35.0875 70,36.2249886 70,38.5 L70,59.5 C70,61.833345 68.833345,63 66.5,63 L28,63 L28,66.5 C28,68.833345 29.166655,70 31.5,70 L94.5,70 C96.833345,70 98,71.166655 98,73.5 L98,94.5 C98,96.833345 96.833345,98 94.5,98 L24.5,98 C17.7332995,98 11.9583573,95.6083573 7.175,90.825 C2.39164275,86.0416427 0,80.2667005 0,73.5 L0,73.5 Z M94.5,0 C96.833345,0 98,1.166655 98,3.5 L98,24.5 C98,26.833345 96.833345,28 94.5,28 L0,28 L0,24.5 C0,17.7332995 2.39164275,11.9583573 7.175,7.175 C11.9583573,2.39164275 17.7332995,0 24.5,0 L94.5,0 Z"></path>
        </g>
        <g class="n" transform="translate(1.000000, 1.000000)">
            <path d="M52.5,42 L66.5,42 C68.833345,42 70,40.833345 70,38.5 L70,3.5 C70,1.166655 71.166655,0 73.5,0 L94.5,0 C96.833345,0 98,1.166655 98,3.5 L98,94.5 C98,96.833345 96.833345,98 94.5,98 L80.5,98 L52.5,59.5 L52.5,42 Z M45.5,56 L31.5,56 C29.166655,56 28,57.166655 28,59.5 L28,94.5 C28,96.833345 26.833345,98 24.5,98 L3.5,98 C1.166655,98 0,96.833345 0,94.5 L0,3.5 C0,1.166655 1.166655,0 3.5,0 L17.5,0 L45.5,38.5 L45.5,56 Z"></path>
        </g>
        <g class="e_" transform="translate(1.000000, 1.000000)">
            <path d="M0,73.5 L0,35 L66.5,35.0875 C68.833345,35.0875 70,36.2249886 70,38.5 L70,59.5 C70,61.833345 68.833345,63 66.5,63 L28,63 L28,66.5 C28,68.833345 29.166655,70 31.5,70 L94.5,70 C96.833345,70 98,71.166655 98,73.5 L98,94.5 C98,96.833345 96.833345,98 94.5,98 L24.5,98 C17.7332995,98 11.9583573,95.6083573 7.175,90.825 C2.39164275,86.0416427 0,80.2667005 0,73.5 L0,73.5 Z M94.5,0 C96.833345,0 98,1.166655 98,3.5 L98,24.5 C98,26.833345 96.833345,28 94.5,28 L0,28 L0,24.5 C0,17.7332995 2.39164275,11.9583573 7.175,7.175 C11.9583573,2.39164275 17.7332995,0 24.5,0 L94.5,0 Z"></path>
        </g>
        <g class="i" transform="translate(1.000000, 1.000000)">
            <path d="M3.5,0 L24.5,0 C26.833345,0 28,1.166655 28,3.5 L28,94.5 C28,96.833345 26.833345,98 24.5,98 L3.5,98 C1.166655,98 0,96.833345 0,94.5 L0,3.5 C0,1.166655 1.166655,0 3.5,0 L3.5,0 Z"></path>
        </g>
    </g>
</svg>
