<?xml version="1.0" encoding="UTF-8"?>
<svg width="520px" height="180px" viewBox="0 0 520 180" version="1.1" xmlns="http://www.w3.org/2000/svg" xmlns:xlink="http://www.w3.org/1999/xlink" xmlns:sketch="http://www.bohemiancoding.com/sketch/ns">
    <!-- Generator: Sketch 3.3 (11970) - http://www.bohemiancoding.com/sketch -->
    <title>Artboard 6</title>
    <desc>Created with Sketch.</desc>
    <defs></defs>
    <g id="logo-set" stroke="none" stroke-width="1" fill="none" fill-rule="evenodd" sketch:type="MSPage">
        <g id="Artboard-6" sketch:type="MSArtboardGroup">
            <path d="M465.570307,49.8577778 L486.077925,49.8577778 C488.356561,49.8577778 489.495862,50.9970785 489.495862,53.2757142 L489.495862,142.142061 C489.495862,144.420697 488.356561,145.559998 486.077925,145.559998 L465.570307,145.559998 C463.291671,145.559998 462.15237,144.420697 462.15237,142.142061 L462.15237,53.2757142 C462.15237,50.9970785 463.291671,49.8577778 465.570307,49.8577778 L465.570307,49.8577778 Z" id="i" fill="#111111" sketch:type="MSShapeGroup"></path>
            <path d="M359.614278,121.634443 L359.614278,84.037142 L424.55507,84.1055007 C426.833705,84.1055007 427.973006,85.2220155 427.973006,87.4550784 L427.973006,107.962697 C427.973006,110.241333 426.833705,111.380633 424.55507,111.380633 L386.957769,111.380633 L386.957769,114.79857 C386.957769,117.077205 388.09707,118.216506 390.375706,118.216506 L451.898561,118.216506 C454.177197,118.216506 455.316498,119.355807 455.316498,121.634443 L455.316498,142.142061 C455.316498,144.420697 454.177197,145.559998 451.898561,145.559998 L383.539833,145.559998 C376.931789,145.559998 371.292251,143.224431 366.621047,138.553228 C361.949844,133.882025 359.614278,128.242486 359.614278,121.634443 Z M451.898561,49.8577778 C454.177197,49.8577778 455.316498,50.9970785 455.316498,53.2757142 L455.316498,73.7833327 C455.316498,76.0619684 454.177197,77.2012692 451.898561,77.2012692 L359.614278,77.2012692 L359.614278,73.7833327 C359.614278,67.1752893 361.949844,61.5357506 366.621047,56.8645475 C371.292251,52.1933443 376.931789,49.8577778 383.539833,49.8577778 L451.898561,49.8577778 Z" id="e2" fill="#111111" sketch:type="MSShapeGroup"></path>
            <path d="M308.345232,90.8730148 L322.016977,90.8730148 C324.295613,90.8730148 325.434914,89.7337141 325.434914,87.4550784 L325.434914,53.2757142 C325.434914,50.9970785 326.574214,49.8577778 328.85285,49.8577778 L349.360469,49.8577778 C351.639104,49.8577778 352.778405,50.9970785 352.778405,53.2757142 L352.778405,142.142061 C352.778405,144.420697 351.639104,145.559998 349.360469,145.559998 L335.688723,145.559998 L308.345232,107.962697 L308.345232,90.8730148 Z M301.509359,104.544761 L287.837613,104.544761 C285.558977,104.544761 284.419677,105.684061 284.419677,107.962697 L284.419677,142.142061 C284.419677,144.420697 283.280376,145.559998 281.00174,145.559998 L260.494122,145.559998 C258.215486,145.559998 257.076185,144.420697 257.076185,142.142061 L257.076185,53.2757142 C257.076185,50.9970785 258.215486,49.8577778 260.494122,49.8577778 L274.165867,49.8577778 L301.509359,87.4550784 L301.509359,104.544761 Z" id="n" fill="#111111" sketch:type="MSShapeGroup"></path>
            <path d="M246.822376,49.8577778 C249.101012,49.8577778 250.240312,50.9970785 250.240312,53.2757142 L250.240312,73.7833327 C250.240312,76.0619684 249.101012,77.2012692 246.822376,77.2012692 L154.538093,77.2012692 L154.538093,73.7833327 C154.538093,67.1752893 156.873659,61.5357506 161.544862,56.8645475 C166.216065,52.1933443 171.855604,49.8577778 178.463648,49.8577778 L246.822376,49.8577778 Z M154.538093,121.634443 L154.538093,84.037142 L219.478885,84.1055007 C221.75752,84.1055007 222.896821,85.2220155 222.896821,87.4550784 L222.896821,107.962697 C222.896821,110.241333 221.75752,111.380633 219.478885,111.380633 L181.881584,111.380633 L181.881584,114.79857 C181.881584,117.077205 183.020885,118.216506 185.29952,118.216506 L246.822376,118.216506 C249.101012,118.216506 250.240312,119.355807 250.240312,121.634443 L250.240312,142.142061 C250.240312,144.420697 249.101012,145.559998 246.822376,145.559998 L178.463648,145.559998 C171.855604,145.559998 166.216065,143.224431 161.544862,138.553228 C156.873659,133.882025 154.538093,128.242486 154.538093,121.634443 Z" id="e" fill="#111111" sketch:type="MSShapeGroup"></path>
            <path d="M142.999999,87 L104.882187,87 L104.882187,91.2353125 C104.882187,107.609002 91.608689,120.8825 75.2349997,120.8825 L8.00000095,120.8825 L8.00000095,159.000312 L75.2349997,159.000312 C112.660575,159.000312 142.999999,128.660888 142.999999,91.2353125 L142.999999,87 Z M8,93 L46.1176471,93 C46.1176471,93 46.1176471,88.7647059 46.1176471,88.7647059 C46.1176471,72.3910874 59.3910874,59.1176471 75.7647059,59.1176471 L143,59.1176471 L143,21 L75.7647059,21 C38.3392922,21 8,51.3392922 8,88.7647059 L8,93 Z" id="s" stroke="#000000" stroke-width="3" stroke-linecap="round" stroke-linejoin="round" fill="#000000" sketch:type="MSShapeGroup"></path>
            <g id="web" sketch:type="MSLayerGroup" transform="translate(434.000000, 150.000000)" stroke="#000000" fill="#FFFFFF">
                <path d="M77.3164062,6.00390625 L77.3164062,6.765625 L57.5117188,6.765625 L57.5117188,1.43359375 C57.5117188,0.925778711 57.7656225,0.671875 58.2734375,0.671875 L71.984375,0.671875 C73.4570386,0.671875 74.713862,1.19237761 75.7548828,2.23339844 C76.7959036,3.27441927 77.3164062,4.53124264 77.3164062,6.00390625 Z M73.5078125,8.2890625 C74.9804761,8.2890625 76.2372995,8.80956511 77.2783203,9.85058594 C78.3193411,10.8916068 78.8398438,12.1484301 78.8398438,13.6210938 L78.8398438,16.6679688 C78.8398438,18.1406324 78.3193411,19.3974557 77.2783203,20.4384766 C76.2372995,21.4794974 74.9804761,22 73.5078125,22 L58.2734375,22 C57.7656225,22 57.5117188,21.7460963 57.5117188,21.2382812 L57.5117188,15.90625 L71.984375,15.90625 C72.49219,15.90625 72.7460938,15.6523463 72.7460938,15.1445312 C72.7460938,14.6367162 72.49219,14.3828125 71.984375,14.3828125 L57.5117188,14.3828125 L57.5117188,8.2890625 L73.5078125,8.2890625 Z" id="b" sketch:type="MSShapeGroup"></path>
                <path d="M30.2792969,16.6679688 L30.2792969,8.2890625 L44.7519531,8.30810547 C45.2597682,8.30810547 45.5136719,8.55566159 45.5136719,9.05078125 L45.5136719,13.6210938 C45.5136719,14.1289088 45.2597682,14.3828125 44.7519531,14.3828125 L36.3730469,14.3828125 L36.3730469,15.1445312 C36.3730469,15.6523463 36.6269506,15.90625 37.1347656,15.90625 L50.8457031,15.90625 C51.3535182,15.90625 51.6074219,16.1601537 51.6074219,16.6679688 L51.6074219,21.2382812 C51.6074219,21.7460963 51.3535182,22 50.8457031,22 L35.6113281,22 C34.1386645,22 32.8818411,21.4794974 31.8408203,20.4384766 C30.7997995,19.3974557 30.2792969,18.1406324 30.2792969,16.6679688 Z M50.8457031,0.671875 C51.3535182,0.671875 51.6074219,0.925778711 51.6074219,1.43359375 L51.6074219,6.00390625 C51.6074219,6.51172129 51.3535182,6.765625 50.8457031,6.765625 L30.2792969,6.765625 L30.2792969,6.00390625 C30.2792969,4.53124264 30.7997995,3.27441927 31.8408203,2.23339844 C32.8818411,1.19237761 34.1386645,0.671875 35.6113281,0.671875 L50.8457031,0.671875 Z" id="e" sketch:type="MSShapeGroup"></path>
                <path d="M11.4257812,13.6210937 L3.80859375,22 L0.76171875,22 C0.253903711,22 0,21.7460963 0,21.2382812 L0,1.43359375 C0,0.925778711 0.253903711,0.671875 0.76171875,0.671875 L5.33203125,0.671875 C5.83984629,0.671875 6.09375,0.925778711 6.09375,1.43359375 L6.09375,9.05078125 C6.09375,9.55859629 6.34765371,9.8125 6.85546875,9.8125 L11.4257812,9.8125 L11.4257812,13.6210937 Z M12.9492188,9.8125 L17.5195312,9.8125 C18.0273463,9.8125 18.28125,9.55859629 18.28125,9.05078125 L18.28125,1.43359375 C18.28125,0.925778711 18.5351537,0.671875 19.0429688,0.671875 L23.6132812,0.671875 C24.1210963,0.671875 24.375,0.925778711 24.375,1.43359375 L24.375,21.2382812 C24.375,21.7460963 24.1210963,22 23.6132812,22 L20.5664062,22 L12.9492188,13.6210937 L12.9492188,9.8125 Z" id="w" sketch:type="MSShapeGroup"></path>
            </g>
        </g>
    </g>
</svg>