<svg xmlns="http://www.w3.org/2000/svg" width="520" height="180">
  <g fill="none" fill-rule="evenodd">
    <path fill="#111112" d="M465.57 49.858h20.508c2.28 0 3.418 1.14 3.418 3.418v88.866c0 2.28-1.14 3.418-3.418 3.418H465.57c-2.278 0-3.418-1.14-3.418-3.418V53.276c0-2.28 1.14-3.418 3.418-3.418z"/>
    <path fill="#111113" d="M359.614 121.634V84.037l64.94.07c2.28 0 3.42 1.115 3.42 3.348v20.508c0 2.278-1.14 3.418-3.42 3.418H386.96v3.42c0 2.277 1.14 3.417 3.418 3.417H451.9c2.277 0 3.416 1.14 3.416 3.417v20.508c0 2.28-1.14 3.418-3.417 3.418h-68.36c-6.608 0-12.248-2.336-16.92-7.007-4.67-4.67-7.006-10.31-7.006-16.92zM451.9 49.858c2.277 0 3.416 1.14 3.416 3.418v20.507c0 2.28-1.14 3.418-3.417 3.418h-92.286v-3.417c0-6.608 2.336-12.247 7.007-16.918 4.672-4.672 10.312-7.007 16.92-7.007h68.36z"/>
    <path fill="#111114" d="M308.345 90.873h13.672c2.28 0 3.418-1.14 3.418-3.418v-34.18c0-2.278 1.14-3.417 3.418-3.417h20.507c2.28 0 3.418 1.14 3.418 3.418v88.866c0 2.28-1.14 3.418-3.418 3.418h-13.67l-27.345-37.597v-17.09zm-6.836 13.672h-13.672c-2.28 0-3.418 1.14-3.418 3.418v34.18c0 2.278-1.14 3.417-3.418 3.417h-20.508c-2.28 0-3.418-1.14-3.418-3.418V53.276c0-2.28 1.14-3.418 3.418-3.418h13.672l27.343 37.597v17.09z"/>
    <path fill="#111115" d="M246.822 49.858c2.28 0 3.418 1.14 3.418 3.418v20.507c0 2.28-1.14 3.418-3.418 3.418h-92.284v-3.417c0-6.608 2.336-12.247 7.007-16.918 4.67-4.672 10.31-7.007 16.92-7.007h68.357zm-92.284 71.776V84.037l64.94.07c2.28 0 3.42 1.115 3.42 3.348v20.508c0 2.278-1.14 3.418-3.42 3.418h-37.596v3.42c0 2.277 1.14 3.417 3.418 3.417h61.522c2.28 0 3.418 1.14 3.418 3.417v20.508c0 2.28-1.14 3.418-3.418 3.418h-68.358c-6.608 0-12.248-2.336-16.92-7.007-4.67-4.67-7.006-10.31-7.006-16.92z"/>
    <path fill="#111111" stroke="#111111" stroke-width="3" d="M143 87h-38.118v4.235c0 16.374-13.273 29.647-29.647 29.647H8V159h67.235C112.66 159 143 128.66 143 91.235V87zM8 93h38.118v-4.235c0-16.374 13.273-29.647 29.647-29.647H143V21H75.765C38.34 21 8 51.34 8 88.765V93z" stroke-linecap="round" stroke-linejoin="round"/>
  </g>
</svg>