<svg xmlns="http://www.w3.org/2000/svg" width="520" height="180">
  <g fill="#FFF" stroke="#000">
    <path d="M511.316 156.004v.762h-19.804v-5.332c0-.508.254-.762.76-.762h13.712c1.473 0 2.73.52 3.77 1.56 1.042 1.042 1.562 2.3 1.562 3.772zm-3.808 2.285c1.472 0 2.73.52 3.77 1.56s1.562 2.295 1.562 3.77v3.045c0 1.473-.52 2.73-1.562 3.77-1.04 1.04-2.298 1.562-3.77 1.562h-15.235c-.507 0-.76-.255-.76-.763v-5.332h14.47c.51 0 .763-.254.763-.76 0-.51-.254-.763-.762-.763h-14.472v-6.095h15.996z" class="w"/>
    <path d="M464.28 166.668v-8.38l14.472.02c.508 0 .762.248.762.743v4.57c0 .51-.254.766-.762.766h-8.38v.762c0 .507.255.76.763.76h13.71c.51 0 .762.255.762.763v4.57c0 .508-.253.76-.76.76H469.61c-1.47 0-2.728-.52-3.77-1.56-1.04-1.04-1.56-2.297-1.56-3.77zm20.566-15.996c.508 0 .76.254.76.762v4.57c0 .508-.252.762-.76.762H464.28v-.762c0-1.473.52-2.73 1.56-3.77 1.042-1.042 2.3-1.562 3.77-1.562h15.236z" class="e"/>
    <path d="M445.426 163.62L437.81 172h-3.048c-.508 0-.762-.254-.762-.762v-19.804c0-.508.254-.762.762-.762h4.57c.508 0 .762.254.762.762v7.617c0 .51.254.765.76.765h4.572v3.81zm1.523-3.808h4.57c.504 0 .76-.253.76-.76v-7.618c0-.508.252-.762.76-.762h4.57c.51 0 .762.254.762.762v19.804c0 .508-.254.762-.762.762h-3.046l-7.617-8.38v-3.808z" class="b"/>
  </g>
</svg>
