<?xml version="1.0" encoding="UTF-8"?>
<svg width="100px" height="100px" viewBox="0 0 100 100" version="1.1" xmlns="http://www.w3.org/2000/svg" xmlns:xlink="http://www.w3.org/1999/xlink" xmlns:sketch="http://www.bohemiancoding.com/sketch/ns">
    <!-- Generator: Sketch 3.3 (11970) - http://www.bohemiancoding.com/sketch -->
    <title>100x100 - svg</title>
    <desc>Created with Sketch.</desc>
    <defs></defs>
    <g id="main-scrine" stroke="none" stroke-width="1" fill="none" fill-rule="evenodd" sketch:type="MSPage">
        <g id="100x100---svg" sketch:type="MSArtboardGroup" fill="#000000">
            <path d="M53.5,43 L67.5,43 C69.833345,43 71,41.833345 71,39.5 L71,4.5 C71,2.166655 72.166655,1 74.5,1 L95.5,1 C97.833345,1 99,2.166655 99,4.5 L99,95.5 C99,97.833345 97.833345,99 95.5,99 L81.5,99 L53.5,60.5 L53.5,43 Z M46.5,57 L32.5,57 C30.166655,57 29,58.166655 29,60.5 L29,95.5 C29,97.833345 27.833345,99 25.5,99 L4.5,99 C2.166655,99 1,97.833345 1,95.5 L1,4.5 C1,2.166655 2.166655,1 4.5,1 L18.5,1 L46.5,39.5 L46.5,57 Z" id="n" sketch:type="MSShapeGroup"></path>
            <path d="M4.5,1 L25.5,1 C27.833345,1 29,2.166655 29,4.5 L29,95.5 C29,97.833345 27.833345,99 25.5,99 L4.5,99 C2.166655,99 1,97.833345 1,95.5 L1,4.5 C1,2.166655 2.166655,1 4.5,1 L4.5,1 Z" id="i" sketch:type="MSShapeGroup"></path>
        </g>
    </g>
</svg>