<?xml version="1.0" encoding="UTF-8"?>
<svg width="360px" height="720px" viewBox="0 0 360 720" version="1.1" xmlns="http://www.w3.org/2000/svg" xmlns:xlink="http://www.w3.org/1999/xlink" xmlns:sketch="http://www.bohemiancoding.com/sketch/ns">
    <!-- Generator: Sketch 3.3 (11970) - http://www.bohemiancoding.com/sketch -->
    <title>360x720</title>
    <desc>Created with Sketch.</desc>
    <defs></defs>
    <g id="logo-set" stroke="none" stroke-width="1" fill="none" fill-rule="evenodd" sketch:type="MSPage">
        <g id="360x720" sketch:type="MSArtboardGroup">
            <path d="M0,0 L360,0 L360,720 L0,720 L0,0 Z M65.5,480 L86.5,480 C88.833345,480 90,481.190464 90,483.571429 L90,576.428571 C90,578.809536 88.833345,580 86.5,580 L65.5,580 C63.166655,580 62,578.809536 62,576.428571 L62,483.571429 C62,481.190464 63.166655,480 65.5,480 Z M26,449 L26,409.714286 L93.8571429,409.785714 C96.2381071,409.785714 97.4285714,410.952369 97.4285714,413.285714 L97.4285714,434.714286 C97.4285714,437.09525 96.2381071,438.285714 93.8571429,438.285714 L54.5714286,438.285714 L54.5714286,441.857143 C54.5714286,444.238107 55.7618929,445.428571 58.1428571,445.428571 L122.428571,445.428571 C124.809536,445.428571 126,446.619036 126,449 L126,470.428571 C126,472.809536 124.809536,474 122.428571,474 L51,474 C44.0952036,474 38.2024054,471.559548 33.3214286,466.678571 C28.4404518,461.797595 26,455.904796 26,449 Z M122.428571,374 C124.809536,374 126,375.190464 126,377.571429 L126,399 C126,401.380964 124.809536,402.571429 122.428571,402.571429 L26,402.571429 L26,399 C26,392.095204 28.4404518,386.202405 33.3214286,381.321429 C38.2024054,376.440452 44.0952036,374 51,374 L122.428571,374 Z M79.5714286,310.857143 L93.8571429,310.857143 C96.2381071,310.857143 97.4285714,309.666679 97.4285714,307.285714 L97.4285714,271.571429 C97.4285714,269.190464 98.6190357,268 101,268 L122.428571,268 C124.809536,268 126,269.190464 126,271.571429 L126,364.428571 C126,366.809536 124.809536,368 122.428571,368 L108.142857,368 L79.5714286,328.714286 L79.5714286,310.857143 Z M72.4285714,325.142857 L58.1428571,325.142857 C55.7618929,325.142857 54.5714286,326.333321 54.5714286,328.714286 L54.5714286,364.428571 C54.5714286,366.809536 53.3809643,368 51,368 L29.5714286,368 C27.1904643,368 26,366.809536 26,364.428571 L26,271.571429 C26,269.190464 27.1904643,268 29.5714286,268 L43.8571429,268 L72.4285714,307.285714 L72.4285714,325.142857 Z M122.428571,162 C124.809536,162 126,163.190464 126,165.571429 L126,187 C126,189.380964 124.809536,190.571429 122.428571,190.571429 L26,190.571429 L26,187 C26,180.095204 28.4404518,174.202405 33.3214286,169.321429 C38.2024054,164.440452 44.0952036,162 51,162 L122.428571,162 Z M26,237 L26,197.714286 L93.8571429,197.785714 C96.2381071,197.785714 97.4285714,198.952369 97.4285714,201.285714 L97.4285714,222.714286 C97.4285714,225.09525 96.2381071,226.285714 93.8571429,226.285714 L54.5714286,226.285714 L54.5714286,229.857143 C54.5714286,232.238107 55.7618929,233.428571 58.1428571,233.428571 L122.428571,233.428571 C124.809536,233.428571 126,234.619036 126,237 L126,258.428571 C126,260.809536 124.809536,262 122.428571,262 L51,262 C44.0952036,262 38.2024054,259.559548 33.3214286,254.678571 C28.4404518,249.797595 26,243.904796 26,237 Z M149.999694,80.9998509 L111.881968,80.9998509 L111.881968,85.2351537 C111.881968,101.608806 98.6085001,114.882274 82.2348477,114.882274 L15.000001,114.882274 L15.000001,153 L82.2348477,153 C119.660339,153 149.999694,122.660645 149.999694,85.2351537 L149.999694,80.9998509 Z M15,86.9998373 L53.1175609,86.9998373 C53.1175609,86.9998373 53.1175609,82.7645527 53.1175609,82.7645527 C53.1175609,66.3909713 66.3909713,53.1175609 82.7645527,53.1175609 L149.999695,53.1175609 L149.999695,15 L82.7645527,15 C45.3392237,15 15,45.3392237 15,82.7645527 L15,86.9998373 Z" id="Rectangle-2" fill-opacity="0.178413723" fill="#000000" sketch:type="MSShapeGroup"></path>
            <g id="senei_web" sketch:type="MSLayerGroup" transform="translate(15.000000, 15.000000)"></g>
        </g>
    </g>
</svg>