<?xml version="1.0" standalone="no"?>
<!DOCTYPE svg PUBLIC "-//W3C//DTD SVG 20010904//EN"
 "http://www.w3.org/TR/2001/REC-SVG-20010904/DTD/svg10.dtd">
<svg version="1.0" xmlns="http://www.w3.org/2000/svg"
 width="16.000000pt" height="16.000000pt" viewBox="0 0 16.000000 16.000000"
 preserveAspectRatio="xMidYMid meet">
<metadata>
Created by potrace 1.11, written by Peter Selinger 2001-2013
</metadata>
<g transform="translate(0.000000,16.000000) scale(0.011111,-0.011111)"
fill="#000000" stroke="none">
<path d="M575 1241 c-228 -65 -396 -277 -391 -496 l1 -60 155 0 155 0 6 55
c10 87 32 125 99 171 35 24 38 24 345 29 l310 5 0 155 0 155 -310 2 c-266 1
-319 -1 -370 -16z"/>
<path d="M947 754 c-4 -4 -7 -26 -7 -49 0 -68 -43 -141 -103 -175 l-51 -29
-295 -1 c-163 0 -299 -4 -304 -9 -4 -4 -6 -75 -5 -157 l3 -149 307 -2 c246 -2
319 1 365 13 160 41 297 159 361 311 31 73 36 101 37 183 l0 65 -151 3 c-82 1
-153 -1 -157 -4z"/>
</g>
</svg>
